<svg xmlns="http://www.w3.org/2000/svg" viewBox="0 0 512 150">
  <path fill="#1E64FF" d="M86.7 32.4c-8.4 0-15.2 6.8-15.2 15.2 0 8.4 6.8 15.2 15.2 15.2 8.4 0 15.2-6.8 15.2-15.2 0-8.4-6.8-15.2-15.2-15.2zm13.3 106.4H73.4V71.6h26.6v67.2zm70.4-67.2h-26.6v10.8c-6-5.9-13.8-13.4-24.3-13.4-22.6 0-40.7 18-40.7 40s18.1 40 40.7 40c10.2 0 18.1-4.1 25.3-13.9v12.7h24.9V71.6zm-26.6 43.2c0 8.2-6.7 14.9-14.9 14.9s-14.9-6.7-14.9-14.9 6.7-14.9 14.9-14.9 14.9 6.7 14.9 14.9zm68.4-43.2h-26.6v8.8c-5.7-7-13.1-10.2-22.6-10.2-24 0-43.7 18-43.7 40s19.7 40 43.7 40c9.5 0 15.6-2.9 20.3-8.8v75.2h26.6V71.6zm-26.6 40c0 8.2-6.7 14.9-14.9 14.9s-14.9-6.7-14.9-14.9 6.7-14.9 14.9-14.9 14.9 6.7 14.9 14.9zM292 71.6l-56.3 80.6h55.2v66h26.6v-66h56.3L292 71.6zm69.2-39.2c-8.4 0-15.2 6.8-15.2 15.2 0 8.4 6.8 15.2 15.2 15.2 8.4 0 15.2-6.8 15.2-15.2 0-8.4-6.8-15.2-15.2-15.2zm13.3 106.4h-26.6V71.6h26.6v67.2zm104.5-26.6c0 22-18 40-40.7 40s-40.7-18-40.7-40 18-40 40.7-40 40.7 18 40.7 40zm-26.6 0c0-8.4-6.8-15.2-15.2-15.2-8.4 0-15.2 6.8-15.2 15.2 0 8.4 6.8 15.2 15.2 15.2 8.4 0 15.2-6.8 15.2-15.2zm93.8 0c0 22-18 40-40.7 40s-40.7-18-40.7-40 18-40 40.7-40 40.7 18 40.7 40zm-26.6 0c0-8.4-6.8-15.2-15.2-15.2-8.4 0-15.2 6.8-15.2 15.2 0 8.4 6.8 15.2 15.2 15.2 8.4 0 15.2-6.8 15.2-15.2z"/>
</svg>