<svg xmlns="http://www.w3.org/2000/svg" viewBox="0 0 200 50" width="200" height="50">
  <path fill="#1E64FF" d="M20 8c-2.2 0-4 1.8-4 4s1.8 4 4 4 4-1.8 4-4-1.8-4-4-4zm4 38h-8V24h8zm21-24h-8v3.2c-1.8-1.6-4.1-3.6-7.3-3.6-6.8 0-12.2 5.4-12.2 12s5.4 12 12.2 12c3.1 0 5.4-1.2 7.6-4.2v3.8h7.5V22zm-8 13c0 3.3-2.7 6-6 6s-6-2.7-6-6 2.7-6 6-6 6 2.7 6 6zm20.6-13h-8v2.6c-1.7-2.1-3.9-3.1-6.8-3.1-7.2 0-13.1 5.4-13.1 12s5.9 12 13.1 12c2.9 0 4.7-.9 6.1-2.6v22.6h7.5V22zm-8 12c0 3.3-2.7 6-6 6s-6-2.7-6-6 2.7-6 6-6 6 2.7 6 6zM79.3 22 58.4 46.3h16.6v19.8h8V46.3h16.6L79.3 22zM99.3 8c-2.2 0-4 1.8-4 4s1.8 4 4 4 4-1.8 4-4-1.8-4-4-4zm4 38h-8V24h8zm31.4-8c0 6.6-5.4 12-12.2 12S110 44.6 110 38s5.4-12 12.2-12 12.2 5.4 12.2 12zm-8 0c0-2.2-1.8-4-4.2-4s-4.2 1.8-4.2 4 1.8 4 4.2 4 4.2-1.8 4.2-4zm28.2 0c0 6.6-5.4 12-12.2 12S138.2 44.6 138.2 38s5.4-12 12.2-12 12.2 5.4 12.2 12zm-8 0c0-2.2-1.8-4-4.2-4s-4.2 1.8-4.2 4 1.8 4 4.2 4 4.2-1.8 4.2-4z"/>
</svg>