<svg xmlns="http://www.w3.org/2000/svg" viewBox="0 0 120 30" width="120" height="30"><path fill="#1E64FF" d="M12 4a3 3 0 1 0 3 3 3 3 0 0 0-3-3zm3 26H9V14h6zm16-16h-6v2.5c-1.3-1.2-3-2.8-5.3-2.8-5 0-9 4-9 8.8s4 8.8 9 8.8c2.2 0 4-.9 5.5-3v2.8h5.5V14zm-6 9.5a4.5 4.5 0 1 1-4.5-4.5 4.5 4.5 0 0 1 4.5 4.5zm15-9.5h-6v2c-1.2-1.5-3-2.2-5-2.2-5.2 0-9.5 4-9.5 8.8s4.3 8.8 9.5 8.8c2 0 3.5-.6 4.5-2v16.5h5.5V14zm-6 8.8a4.4 4.4 0 0 1-4.4 4.4 4.4 4.4 0 0 1-4.4-4.4 4.4 4.4 0 0 1 4.4-4.4 4.4 4.4 0 0 1 4.4 4.4zM60 14 48 31h12v14h6V31h12L60 14zm17 0a3 3 0 1 0 3 3 3 3 0 0 0-3-3zm3 26h-6V14h6zm23-6a9 9 0 1 0-9 8.8 9 9 0 0 0 9-8.8zm-6 0a3 3 0 1 1-6 0 3 3 0 0 1 6 0zm21 0a9 9 0 1 0-9 8.8 9 9 0 0 0 9-8.8zm-6 0a3 3 0 1 1-6 0 3 3 0 0 1 6 0z"/></svg>