<svg xmlns="http://www.w3.org/2000/svg" viewBox="0 0 100 28"><path fill="#2E3192" d="M11.643 4.286A2.857 2.857 0 1 0 14.5 7.143a2.857 2.857 0 0 0-2.857-2.857zm2.5 23.571h-5v-13.928h5zm13.214-13.928h-5v2.247c-1.125-1.114-2.589-2.522-4.571-2.522-4.25 0-7.643 3.375-7.643 7.5s3.393 7.5 7.643 7.5c1.91 0 3.393-.761 4.75-2.618v2.393h4.679v-14.5zm-5 8.121a3.839 3.839 0 1 1-3.839-3.839 3.839 3.839 0 0 1 3.839 3.839zm12.857-8.121h-5v1.644c-1.071-1.321-2.464-1.921-4.25-1.921-4.5 0-8.214 3.375-8.214 7.5s3.714 7.5 8.214 7.5c1.786 0 2.929-.536 3.821-1.644v14.12h4.679v-27.2zm-5 7.5a3.75 3.75 0 0 1-3.75 3.75 3.75 3.75 0 0 1-3.75-3.75 3.75 3.75 0 0 1 3.75-3.75 3.75 3.75 0 0 1 3.75 3.75zm17.321-7.5-10.571 15.178h10.357v12.393h5v-12.393h10.571L49.536 13.929zM62.357 4.286A2.857 2.857 0 1 0 65.214 7.143a2.857 2.857 0 0 0-2.857-2.857zm2.5 23.571h-5v-13.928h5zm19.643-5a7.643 7.643 0 1 0-7.643 7.5 7.634 7.634 0 0 0 7.643-7.5zm-5 0a2.643 2.643 0 1 1-5.286 0 2.643 2.643 0 0 1 5.286 0zm17.643 0a7.643 7.643 0 1 0-7.643 7.5 7.634 7.634 0 0 0 7.643-7.5zm-5 0a2.643 2.643 0 1 1-5.286 0 2.643 2.643 0 0 1 5.286 0z"/></svg>
