<svg xmlns="http://www.w3.org/2000/svg" viewBox="0 0 200 50" width="200" height="50">
  <path fill="#1A1F71" d="M74.6 9.5 65.4 40.6h-8.6L65.4 9.5h9.2zm41.6 21.8c.2 6.2-8.7 6.5-8.7 9.2 0 .9.8 1.7 2.6 1.7 2.1 0 3.9-.6 5.6-1.4l1 5c-2 .8-4.6 1.2-7.8 1.2-7.4 0-12.2-4-12.2-10.2 0-6.2 9-10.6 9-14.2 0-1.2-1-2.2-3-2.2-1.8 0-4.2.6-6 2l-1.4-5c2-.8 5-1.8 8.6-1.8 7.4-.2 12.2 4 12.2 10.2zM146 40.6h-8.2l-6.4-30.2c-1.6-4.6-4.6-6.2-8.8-6.4h-13.4l-.2 1c9.4 2.2 16 5.4 18.2 8.8L146 40.6zm47.2 0h-8.6l-5.4-25.4c-1-2.2-1.8-2.7-5.2-3.6-2.6-.7-6.8-1.3-10.4-1.7l.2-1h20.8c2.2 0 3.8 1.4 4.2 3.8l4.4 28.9zM26.4 9.5 9.6 30.4 2.8 13.4c-.4-1.4-1.8-2.6-3.6-3.2l-.2-.1h15.6l2.8 13.4 9-13.4h.4z"/>
</svg>