<svg xmlns="http://www.w3.org/2000/svg" viewBox="0 0 500 160">
  <path fill="#1A1F71" d="M186.1 25.2l-18.4 73.6h-15.6l18.4-73.6h15.6zm83.2 49.2c.2 13.6-18.8 14.2-18.8 20.2 0 2.2 1.8 3.8 5.6 3.8 4.6 0 8.4-1.2 12.2-2.8l2.2 10.8c-4.2 1.6-9.4 2.8-16 2.8-14.8 0-24.4-8-24.4-20.4 0-12.4 18-21.2 18-28.4 0-2.4-2-4.2-6-4.2-3.6 0-8.4 1.2-12 3.6l-2.2-10.8c4-1.6 10.2-3.6 17.4-3.6 14.8 0 24.4 8 24.4 20.4v.6zm47.2 24.4h-12.8L296 38.8c-3.2-9.2-9.2-12.4-17.8-12.8h-13.4l-.4 2c14.6 3.4 24.8 8.4 28.4 14L333.2 98.8zm73.4 0h-12.4l-11.6-54.4c-2.2-4.4-4-5.4-10.6-7.2-5.4-1.4-13.4-2.8-20.6-3.6l.4-2h32.6c4.6 0 7.6 2.8 8.6 7.4l6.6 42.8 6.4-42.8c1-4.6 4-7.4 8.6-7.4h12.6l-20.8 66.8zm-298.4-66.8L120.8 74 110.2 38c-2-6-6.6-11.2-14.2-13.2l-.4-.2h22.4l6.6 31.4 21-42.2h11.2z"/>
</svg>