<svg xmlns="http://www.w3.org/2000/svg" viewBox="0 0 120 40" width="120" height="40"><path fill="#1A1F71" d="M45 8 39 32h-5l6-24h5zm25 18c.2 5-7 5.2-7 7.4 0 .7.6 1.3 2 1.3 1.7 0 3-.5 4.4-1.1l.8 4c-1.6.6-3.5 1-6 1-5.5 0-9.1-3-9.1-7.6 0-4.6 6.8-7.9 6.8-10.6 0-.9-.8-1.6-2.3-1.6-1.4 0-3.2.5-4.5 1.5l-.8-4c1.5-.6 3.8-1.3 6.5-1.3 5.5 0 9.1 3 9.1 7.6zM88 32h-6l-4.8-22.6c-1.2-3.4-3.4-4.6-6.6-4.8h-10l-.2.8c7 1.6 12 4 13.6 6.6L88 32zm35.2 0h-6.4l-4-18.8c-.8-1.6-1.4-2-4-2.7-2-.5-5-1-7.8-1.3l.2-.8h15.6c1.7 0 2.8 1 3.2 2.8l3.2 20.8zM20 8 7.4 24 3.2 10.8c-.3-1-1.4-2-2.7-2.4l-.2-.1h6l2.1 10 6.7-10H20z"/></svg>