<svg xmlns="http://www.w3.org/2000/svg" viewBox="0 0 100 32"><path fill="#1A1F71" d="M37.3 6.1l-4.5 20.3h-4.3l4.5-20.3h4.3zm20.8 14.5c.1 4.1-5.8 4.3-5.8 6.1 0 .6.5 1.1 1.7 1.1 1.4 0 2.6-.4 3.7-.9l.7 3.3c-1 .4-2.3.8-3.9.8-3.7 0-6.1-2-6.1-5.1 0-3.1 4.5-5.3 4.5-7.1 0-.6-.5-1.1-1.5-1.1-.9 0-2.1.4-3 1l-.7-3.3c1-.4 2.5-.9 4.3-.9 3.7-.1 6.1 2 6.1 5.1zM73 26.4h-4.1l-3.2-15.1c-.8-3.1-2.9-4.1-5.4-4.2h-6.7l-.1.5c4.7 1.1 8 2.7 9.1 4.4L68.3 26.4zm23.6 0h-4.3l-2.7-12.7c-.5-2.2-.9-2.7-2.6-3.6-1.3-.7-3.4-1.3-5.2-1.7l.1-.5h10.4c1.1 0 1.9.7 2.1 1.9l2.2 16.6zM13.2 6.1L4.8 19.8 1.4 8.7c-.2-.9-.9-1.7-1.8-2.1l-.1-.1h7.8l1.4 6.7 4.5-7.1h1.4z"/></svg>
